<svg xmlns="http://www.w3.org/2000/svg" viewBox="0 0 64 64" fill="none">
  <defs>
    <linearGradient id="bg" x1="10" y1="8" x2="54" y2="56" gradientUnits="userSpaceOnUse">
      <stop offset="0" stop-color="#111827" />
      <stop offset="1" stop-color="#0b1220" />
    </linearGradient>
    <linearGradient id="glass" x1="20" y1="14" x2="44" y2="50" gradientUnits="userSpaceOnUse">
      <stop offset="0" stop-color="#7dd3fc" />
      <stop offset="1" stop-color="#22d3ee" />
    </linearGradient>
    <linearGradient id="liquid" x1="18" y1="36" x2="46" y2="48" gradientUnits="userSpaceOnUse">
      <stop offset="0" stop-color="#2dd4bf" />
      <stop offset="1" stop-color="#818cf8" />
    </linearGradient>
  </defs>
  <rect x="4" y="4" width="56" height="56" rx="16" fill="url(#bg)" />
  <path d="M26 14v11l-10.8 19.6A6 6 0 0 0 20.4 53h23.2a6 6 0 0 0 5.2-8.4L38 25V14" stroke="url(#glass)" stroke-width="3.25" stroke-linecap="round" stroke-linejoin="round" />
  <path d="M19 39h26l3.2 5.8A3 3 0 0 1 45.6 49H18.4a3 3 0 0 1-2.6-4.4L19 39Z" fill="url(#liquid)" opacity="0.95" />
  <path d="M21 34.8c3.7 1.1 7 .9 10.2.2 3.4-.7 6.7-.8 11 .4" stroke="#c4b5fd" stroke-opacity="0.72" stroke-width="1.8" stroke-linecap="round" />
  <circle cx="21.4" cy="27.5" r="2.1" fill="#fb923c" />
  <circle cx="41.8" cy="24.6" r="2.1" fill="#60a5fa" />
  <circle cx="31.8" cy="20.8" r="1.5" fill="#e2e8f0" />
</svg>
